Coordinates
version=1
nRows=27
nColumns=12
inDegrees=yes

Units are S.I. units (second, meters, Newtons, ...)
Angles are in degrees

endheader
time	SC_y	SC_z	SC_x	AC_y	AC_z	AC_x	GH_y	GH_z	GH_yy	EL_x	PS_y
       0.0              -40.88         -3.367          52.05          33.21           9.19         -7.129          160.1          38.05         -25.59          102.4          157.7
  0.004787              -40.88         -3.361          52.04          33.21          9.186         -7.126          160.1          38.06         -25.59          102.4          157.7
  0.009575              -40.88         -3.355          52.04          33.21          9.183         -7.122          160.1          38.06         -25.59          102.4          157.7
   0.01436              -40.88         -3.349          52.04          33.21          9.179         -7.117          160.1          38.06         -25.59          102.4          157.7
   0.01915              -40.88         -3.342          52.03          33.22          9.174         -7.113          160.1          38.07         -25.59          102.4          157.7
   0.02394              -40.88         -3.335          52.03          33.22           9.17         -7.108          160.0          38.07         -25.59          102.4          157.7
   0.02872              -40.88         -3.327          52.02          33.22          9.165         -7.103          160.0          38.07         -25.59          102.4          157.6
   0.03351              -40.88         -3.319          52.02          33.23           9.16         -7.097          160.0          38.08         -25.59          102.4          157.6
    0.0383              -40.87         -3.311          52.01          33.23          9.154         -7.091          160.0          38.08         -25.59          102.4          157.6
   0.04309              -40.87         -3.301           52.0          33.24          9.148         -7.085          160.0          38.09         -25.59          102.4          157.6
   0.04787              -40.87         -3.291           52.0          33.24          9.142         -7.078          159.9          38.09         -25.59          102.4          157.6
   0.05266              -40.87          -3.28          51.99          33.24          9.135          -7.07          159.9           38.1         -25.59          102.4          157.5
   0.05745              -40.86         -3.269          51.98          33.25          9.127         -7.062          159.9          38.11          -25.6          102.4          157.5
   0.06224              -40.86         -3.256          51.97          33.26          9.119         -7.054          159.9          38.11          -25.6          102.5          157.5
   0.06702              -40.86         -3.243          51.97          33.26           9.11         -7.044          159.8          38.12          -25.6          102.5          157.4
   0.07181              -40.86         -3.228          51.96          33.27          9.101         -7.034          159.8          38.13          -25.6          102.5          157.4
    0.0766              -40.85         -3.212          51.95          33.28          9.091         -7.023          159.8          38.14          -25.6          102.5          157.4
   0.08139              -40.85         -3.194          51.93          33.28           9.08         -7.011          159.7          38.15          -25.6          102.5          157.3
   0.08617              -40.85         -3.175          51.92          33.29          9.067         -6.998          159.7          38.16          -25.6          102.5          157.3
   0.09096              -40.84         -3.154          51.91           33.3          9.054         -6.984          159.7          38.17          -25.6          102.5          157.2
   0.09575              -40.84         -3.132          51.89          33.31          9.039         -6.968          159.6          38.18          -25.6          102.6          157.2
    0.1005              -40.83         -3.106          51.88          33.32          9.023         -6.951          159.6          38.19          -25.6          102.6          157.1
    0.1053              -40.83         -3.078          51.86          33.34          9.005         -6.932          159.5          38.21          -25.6          102.6          157.1
    0.1101              -40.82         -3.048          51.84          33.35          8.985         -6.911          159.4          38.23          -25.6          102.6          157.0
    0.1149              -40.81         -3.013          51.81          33.37          8.963         -6.887          159.4          38.24          -25.6          102.7          156.9
    0.1197               -40.8         -2.975          51.79          33.38          8.939         -6.861          159.3          38.26         -25.61          102.7          156.8
    0.1245               -40.8         -2.932          51.76           33.4          8.911         -6.832          159.2          38.29         -25.61          102.7          156.7
